<?xml version="1.0" encoding="utf-8"?>
<!-- Generator: Adobe Illustrator 16.0.0, SVG Export Plug-In . SVG Version: 6.00 Build 0)  -->
<!DOCTYPE svg PUBLIC "-//W3C//DTD SVG 1.1//EN" "http://www.w3.org/Graphics/SVG/1.1/DTD/svg11.dtd">
<svg version="1.1" id="Calque_1" xmlns="http://www.w3.org/2000/svg" xmlns:xlink="http://www.w3.org/1999/xlink" x="0px" y="0px"
	 width="535.53px" height="535.528px" viewBox="0 0 535.53 535.528" enable-background="new 0 0 535.53 535.528"
	 xml:space="preserve">
<g>
	<path fill-rule="evenodd" clip-rule="evenodd" d="M473.851,120.713c-0.156,36.183-8.77,69.14-27.004,99.385
		c-6.145,10.19-11.016,20.916-15.291,31.963c-0.547,1.416-1.027,2.862-1.646,4.246c-1.703,3.801-2.307,7.771-2.193,11.918
		c0.188,6.955,0.395,13.914,0.348,20.869c-0.076,11.354-0.266,22.709-0.57,34.06c-0.24,8.952-0.51,17.913-1.156,26.842
		c-0.896,12.356-1.973,24.706-3.309,37.023c-1.887,17.413-4.947,34.646-8.693,51.757c-4.01,18.327-9.404,36.193-17.768,53.061
		c-5.242,10.576-11.326,20.604-19.549,29.184c-4.006,4.181-8.52,7.742-13.52,10.668c-5.742,3.359-11.863,4.642-18.439,3.197
		c-4.877-1.07-8.752-3.792-12.035-7.441c-4.752-5.278-7.432-11.56-8.426-18.502c-1.111-7.753-1.871-15.555-2.861-23.325
		c-1.715-13.479-3.359-26.967-5.271-40.418c-2.094-14.721-4.836-29.333-8.217-43.817c-3.672-15.728-7.717-31.363-13.438-46.483
		c-2.768-7.314-6.168-14.394-9.377-21.536c-1.566-3.49-4.133-6.271-7.018-8.723c-3.627-3.085-7.149-2.863-10.271,0.772
		c-4.507,5.249-8.077,11.121-10.884,17.441c-6.506,14.653-11.365,29.864-15.207,45.407c-3.954,15.996-6.922,32.187-9.203,48.5
		c-2.425,17.337-4.716,34.691-7.084,52.036c-0.961,7.047-1.822,14.112-3.006,21.123c-1.07,6.336-3.768,12.027-7.896,16.992
		c-8.033,9.658-23.044,11.489-33.15,4.01c-10.174-7.53-18.271-16.92-24.693-27.793c-6.783-11.481-11.816-23.743-16.132-36.314
		c-5.88-17.131-9.947-34.704-12.716-52.593c-2.446-15.813-4.037-31.717-5.307-47.66c-1.251-15.703-2.554-31.401-3.846-47.1
		c-0.256-3.108-0.576-6.21-0.846-9.316c-0.089-1.031-0.124-1.986,0.734-2.884c0.466-0.487,0.564-1.459,0.582-2.217
		c0.064-2.799,0.021-5.6,0.028-8.399c0.023-8.559,0.027-17.118,0.085-25.676c0.071-10.522-2.232-20.478-7.245-29.732
		c-4.148-7.66-8.3-15.328-12.779-22.795c-10.982-18.307-18.255-37.973-22.229-58.907c-3.496-18.413-4.305-36.99-3.237-55.657
		c0.831-14.528,3.407-28.714,8.976-42.259c5.862-14.258,14.058-26.893,25.644-37.193c11.965-10.636,25.979-17.284,41.333-21.428
		c14.028-3.786,28.118-3.741,42.312-1.222c13.951,2.476,27.191,7.018,39.832,13.4c10.742,5.424,22.109,8.824,34.12,9.797
		c13.974,1.132,27.411-1.213,40.233-6.881c5.844-2.583,11.561-5.459,17.406-8.04c16.666-7.357,34.158-10.678,52.324-9.851
		c33.328,1.516,59.812,15.875,78.969,43.249c7.766,11.097,12.125,23.709,14.74,36.938c2.021,10.222,2.98,20.562,3.412,30.96
		C473.56,114.781,473.734,118.216,473.851,120.713z M350.755,510.371c2.785-1.314,5.215-2.9,7.143-5.219
		c1.842-2.213,3.699-4.413,5.592-6.584c3.904-4.481,7.266-9.337,10.088-14.564c4.609-8.542,8.268-17.485,10.998-26.792
		c8.607-29.333,13.482-59.358,16.266-89.743c1.078-11.782,1.787-23.601,2.545-35.409c1.205-18.774,1.143-37.574,0.602-56.363
		c-0.459-15.985,2.242-31.191,9.818-45.392c4.777-8.958,9.639-17.873,14.311-26.886c11.42-22.037,18.727-45.284,20.443-70.165
		c1.373-19.916-0.482-39.492-6.586-58.519c-6.875-21.436-21.197-36.174-41.947-44.557c-13.764-5.561-28.057-5.682-42.477-2.942
		c-10.982,2.086-21.404,5.85-31.531,10.494c-11.014,5.049-22.389,8.971-34.346,11.089c-11.832,2.096-23.68,2.308-35.567,0.418
		c-11.547-1.836-22.407-5.66-32.919-10.712c-13.172-6.331-26.821-11.248-41.503-12.689c-11.191-1.099-22.258-0.37-32.918,3.339
		c-23.068,8.026-38.053,24.04-45.46,47.163c-3.377,10.542-5.123,21.436-5.912,32.481c-1.457,20.394,0.604,40.389,6.602,59.964
		c3.838,12.527,9.523,24.222,15.761,35.687c4.584,8.426,9.157,16.86,13.552,25.386c6.396,12.407,9.908,25.599,10.196,39.597
		c0.334,16.231,0.707,32.461,0.96,48.694c0.354,22.64,1.278,45.242,3.878,67.752c2.084,18.049,5.353,35.884,9.871,53.479
		c3.082,12.001,6.465,23.921,11.256,35.378c5.505,13.164,13.212,24.812,23.961,34.322c0.757,0.67,1.559,1.29,2.48,2.05
		c1.45-2.408,2.072-4.79,2.41-7.217c0.85-6.095,1.595-12.205,2.356-18.312c1.503-12.057,2.858-24.135,4.512-36.171
		c2.765-20.122,6.51-40.067,11.343-59.804c3.977-16.239,8.642-32.266,14.899-47.789c4.422-10.97,10.104-21.216,17.906-30.186
		c3.924-4.512,8.408-8.321,13.949-10.745c4.578-2.003,9.311-2.741,14.281-1.86c6.373,1.128,11.611,4.371,16.305,8.627
		c4.113,3.73,7.484,8.098,10.596,12.672c5.701,8.387,9.871,17.532,13.389,27.005c12.387,33.357,19.928,67.899,24.84,103.043
		c2.314,16.543,3.973,33.177,5.975,49.764C349.082,503.546,349.515,506.954,350.755,510.371z"/>
	<path fill-rule="evenodd" clip-rule="evenodd" d="M135.95,118.152c-0.401-13.33,1.643-26.867,7.664-39.667
		c3.612-7.676,9.001-13.727,16.309-18.04c7.705-4.548,17.106-0.675,19.365,7.986c0.701,2.691,0.579,5.399-0.371,8.022
		c-0.587,1.625-1.706,2.869-3.133,3.84c-8.465,5.758-12.601,13.959-13.562,23.971c-1.588,16.544-0.641,32.882,3.883,48.943
		c2.814,9.993,7.003,19.362,12.579,28.122c1.198,1.883,2.39,3.801,3.296,5.832c1.91,4.279,1.872,8.579-0.732,12.597
		c-5.213,8.039-16.442,6.41-20.94,0.778c-0.35-0.437-0.693-0.882-0.989-1.355c-8.651-13.839-15.635-28.404-19.321-44.405
		c-1.619-7.027-2.424-14.173-3.046-21.339C136.529,128.581,136.305,123.708,135.95,118.152z"/>
</g>
</svg>
